# xmcd
#
# Track frame offsets:
#	150
#	11355
#	25367
#	38817
#	50615
#	67229
#	82644
#	100104
#	116482
#	130004
#	143002
#	156702
#	171723
#	185960
#	197873
#	212201
#
# Disc length: 3020
#
# Revision: 2
# Processed by: cddbd v1.5.1PL0 Copyright (c) Steve Scherf et al.
# Submitted via: CDex 1.50beta10
# Normalized: r0:DSETVAR1,TDELIM( - ),TSWAP
#
DISCID=ec0bca10
DTITLE=Various Artist - The Golden Years of Jazz Vol. 5
DYEAR=1997
DGENRE=Jazz
TTITLE0=Muggsy Spanier - Dippermouth Blues
TTITLE1=Charlie Parker - April in Paris
TTITLE2=Jack Teagarden - So Many Times
TTITLE3=Harry James and His Orchestra - Carnival of Venice
TTITLE4=Ella Fitzgerald - Moonlight In Vermont
TTITLE5=Teddy Wilson - Prisoner of Love
TTITLE6=Meade Lux Lewis - Closing Hour Blues
TTITLE7=Duke Ellington and His Orchestra - Solitude
TTITLE8=King Oliver - Rhythm Club Stomp
TTITLE9=Fletcher Henderson - St. Louis Shuffle
TTITLE10=Count Basie and His Orchestra - Doggin' Around
TTITLE11=Coleman Hawkins - Out of Nowhere
TTITLE12=Lester Young - Sad Eyes
TTITLE13=Fats Waller and His Rhythm - Whose Honey Are You
TTITLE14=Sidney Bichet - Indian Summer
TTITLE15=Art Tatum - Stormy Weather
EXTD=YEAR: 1997
EXTT0=
EXTT1=
EXTT2=
EXTT3=
EXTT4=
EXTT5=
EXTT6=
EXTT7=
EXTT8=
EXTT9=
EXTT10=
EXTT11=
EXTT12=
EXTT13=
EXTT14=
EXTT15=
PLAYORDER=
